<svg width="92" height="29" viewBox="0 0 92 29" fill="none" xmlns="http://www.w3.org/2000/svg">
<path d="M20.6062 18.04V10.8163C20.6062 10.1977 20.0918 9.72311 19.0562 9.41026C18.4344 9.24591 17.7926 9.17369 17.1506 9.19584H7.39133V19.8819H17.1057C19.1471 19.8819 20.2978 19.3827 20.5579 18.3844C20.5849 18.2694 20.5965 18.1512 20.5924 18.0329M23.3023 18.0329C23.3293 18.6301 23.1918 19.223 22.9053 19.7448L22.9398 19.664C22.5302 20.524 21.6821 21.1778 20.3956 21.6254C19.3494 21.9796 18.253 22.1554 17.1506 22.1457H5.61692C5.4862 22.1641 5.35306 22.1512 5.22807 22.1081C5.10308 22.065 4.98969 21.9928 4.89688 21.8972C4.80406 21.8017 4.73439 21.6855 4.69339 21.5577C4.65239 21.43 4.64119 21.2943 4.66067 21.1614V7.89875C4.64224 7.7665 4.65426 7.63171 4.6958 7.50501C4.73734 7.37832 4.80725 7.26319 4.9 7.16875C4.99276 7.0743 5.10582 7.00312 5.23024 6.96082C5.35467 6.91853 5.48705 6.90628 5.61692 6.92505H17.2334C17.8979 6.91705 18.5618 6.96525 19.2184 7.06917C21.9479 7.53786 23.3138 8.78574 23.3161 10.8128L23.3023 18.0329Z" fill="white"/>
<path d="M61.8664 21.1789C61.8849 21.3129 61.8726 21.4494 61.8303 21.5776C61.788 21.7059 61.717 21.8223 61.6229 21.9178C61.5288 22.0133 61.4142 22.0852 61.2881 22.1278C61.162 22.1703 61.0279 22.1825 60.8964 22.1631H60.2059C60.0744 22.1825 59.9403 22.1703 59.8142 22.1278C59.6881 22.0852 59.5735 22.0133 59.4794 21.9178C59.3853 21.8223 59.3143 21.7059 59.272 21.5776C59.2297 21.4494 59.2174 21.3129 59.2359 21.1789V13.5475C59.2359 13.08 58.9528 12.7636 58.3832 12.5949C57.5885 12.4297 56.7772 12.3624 55.9667 12.3945H51.7412C50.9083 12.3613 50.0744 12.425 49.2557 12.5843C48.6723 12.7496 48.3823 13.0765 48.3823 13.558V21.1789C48.4012 21.312 48.3894 21.4477 48.3479 21.5754C48.3065 21.7031 48.2365 21.8192 48.1434 21.9147C48.0504 22.0101 47.9368 22.0822 47.8117 22.1253C47.6867 22.1684 47.5534 22.1814 47.4226 22.1631H46.7322C46.6014 22.1815 46.4683 22.1687 46.3433 22.1255C46.2183 22.0824 46.1049 22.0102 46.0121 21.9147C45.9193 21.8192 45.8496 21.7029 45.8086 21.5752C45.7676 21.4475 45.7564 21.3118 45.7759 21.1789V13.5826C45.7759 11.3095 47.7563 10.1718 51.7171 10.1694H55.9563C59.8849 10.1694 61.8503 11.299 61.8526 13.558L61.8664 21.1789Z" fill="white"/>
<path d="M78.7578 15.175V13.7092C78.7578 13.2557 78.2573 12.9077 77.263 12.6547C76.6061 12.4857 75.9315 12.3983 75.2539 12.3945H71.4945C68.8893 12.3945 67.5855 12.8632 67.5832 13.8006V15.1785L78.7578 15.175ZM81.2779 16.3772C81.2779 17.1048 81.0363 17.4704 80.553 17.4704H67.6626C67.6626 19.1249 68.7845 19.9521 71.0285 19.9521H72.972C73.1032 19.9337 73.2368 19.9467 73.3622 19.99C73.4876 20.0333 73.6013 20.1058 73.6945 20.2016C73.7876 20.2975 73.8575 20.4141 73.8987 20.5422C73.9399 20.6704 73.9512 20.8065 73.9317 20.9399V21.1789C73.9506 21.312 73.9388 21.4477 73.8974 21.5754C73.8559 21.7031 73.7859 21.8192 73.6929 21.9147C73.5998 22.0101 73.4863 22.0822 73.3612 22.1253C73.2361 22.1685 73.1029 22.1814 72.972 22.1631H71.315C69.9312 22.2102 68.5515 21.9846 67.2518 21.4988C65.749 20.8661 64.9987 19.8244 65.001 18.3738V13.9623C65.001 12.5773 65.7443 11.5509 67.2311 10.883C68.4949 10.3658 69.8499 10.1193 71.2114 10.1589H76.0444C77.2053 10.1278 78.3584 10.3595 79.4206 10.8373C80.6565 11.4326 81.2745 12.316 81.2745 13.4877L81.2779 16.3772Z" fill="white"/>
<path d="M86.9184 21.179C86.9373 21.3121 86.9255 21.4478 86.8841 21.5755C86.8426 21.7032 86.7726 21.8193 86.6796 21.9148C86.5865 22.0102 86.473 22.0823 86.3479 22.1254C86.2228 22.1685 86.0896 22.1815 85.9587 22.1632H85.2683C85.1376 22.1816 85.0044 22.1688 84.8794 22.1256C84.7545 22.0825 84.6411 22.0103 84.5482 21.9148C84.4554 21.8193 84.3858 21.703 84.3448 21.5753C84.3038 21.4476 84.2926 21.3119 84.312 21.179V7.89875C84.2936 7.7665 84.3056 7.63171 84.3472 7.50501C84.3887 7.37832 84.4586 7.26319 84.5514 7.16875C84.6441 7.0743 84.7572 7.00312 84.8816 6.96082C85.006 6.91853 85.1384 6.90628 85.2683 6.92505H85.9587C86.0887 6.90642 86.2212 6.91874 86.3457 6.96103C86.4703 7.00332 86.5835 7.07444 86.6765 7.16879C86.7695 7.26314 86.8397 7.37816 86.8817 7.50481C86.9237 7.63147 86.9362 7.76631 86.9184 7.89875V21.179Z" fill="white"/>
<path d="M34.6774 12.1836L35.2056 5.06543L34.0215 5.06894L34.5393 12.1836H34.6774Z" fill="white"/>
<path d="M34.5393 18.75V18.7605L34.0732 26.0123H35.2573L34.6774 18.75H34.5393Z" fill="white"/>
<path d="M31.3451 15.4982L24.3545 14.9639L24.3579 16.1696L31.3451 15.6423V15.4982Z" fill="white"/>
<path d="M37.7945 15.4983H37.791V15.6459H37.8048L44.9232 16.1134L44.9197 14.9077L37.7945 15.4983Z" fill="white"/>
<path d="M32.3397 13.1394L27.769 7.72607L26.9336 8.58026L32.2396 13.2378L32.3397 13.1394Z" fill="white"/>
<path d="M36.8931 17.7759L36.793 17.8813L36.8068 17.8884L41.5121 23.3509L42.3475 22.4932L36.9 17.7829L36.8931 17.7759Z" fill="white"/>
<path d="M32.2841 17.8813L26.9678 22.5354L27.8101 23.3861L32.3808 17.9868L32.2841 17.8813Z" fill="white"/>
<path d="M36.835 13.2414L36.942 13.3469L36.9523 13.3328L42.3135 8.54168L41.4712 7.6875L36.8419 13.2379L36.835 13.2414Z" fill="white"/>
<path d="M33.4168 12.4223L31.2281 5.6416L30.1338 6.10912L33.2856 12.4751L33.4168 12.4223Z" fill="white"/>
<path d="M35.8822 18.4863L35.751 18.5426L35.7579 18.5531L38.0536 25.4358L39.1444 24.9718L35.8856 18.4969L35.8822 18.4863Z" fill="white"/>
<path d="M31.5836 16.7847L24.9209 19.0168L25.38 20.1276L31.6388 16.9182L31.5836 16.7847Z" fill="white"/>
<path d="M37.5352 14.2751L37.5904 14.4087L37.6042 14.4017L44.3601 12.0606L43.9009 10.9463L37.5386 14.2751H37.5352Z" fill="white"/>
<path d="M31.6148 14.2154L25.3526 10.999L24.9072 12.1168L31.5561 14.3525L31.6148 14.2154Z" fill="white"/>
<path d="M37.5625 16.7319L37.5107 16.8655L37.5245 16.869L43.9248 20.0819L44.3771 18.9641L37.5694 16.7319H37.5625Z" fill="white"/>
<path d="M30.1787 24.9925L31.273 25.453L33.4721 18.6758L33.3443 18.623L30.1787 24.9925Z" fill="white"/>
<path d="M35.9442 12.602L39.096 6.0849L38.0051 5.62793L35.8096 12.5563V12.5598L35.9408 12.6161L35.9442 12.602Z" fill="white"/>
<path d="M88.4854 5.71234H88.5924C88.7201 5.71234 88.8237 5.67016 88.8237 5.56471C88.8237 5.45925 88.7581 5.41004 88.6131 5.41004C88.5707 5.40424 88.5278 5.40424 88.4854 5.41004V5.71234ZM88.4854 6.27828H88.2541V5.27295C88.3808 5.25243 88.509 5.24185 88.6373 5.24131C88.7581 5.2267 88.8801 5.25528 88.9825 5.32216C89.0162 5.346 89.0434 5.3782 89.0616 5.41571C89.0797 5.45323 89.0881 5.49483 89.0861 5.53658C89.0826 5.59461 89.0605 5.64985 89.023 5.69372C88.9856 5.73758 88.9349 5.76761 88.8789 5.77913C88.9756 5.81077 89.0239 5.89161 89.055 6.02519C89.0679 6.11023 89.0923 6.19303 89.1275 6.27125H88.8859C88.846 6.19436 88.8191 6.11117 88.8065 6.02519C88.8065 5.91974 88.7305 5.87052 88.6028 5.87052H88.4923L88.4854 6.27828ZM87.8744 5.75452C87.8716 5.85969 87.8896 5.96435 87.9272 6.06233C87.9648 6.16031 88.0213 6.24962 88.0934 6.32498C88.1655 6.40035 88.2517 6.46024 88.3469 6.50112C88.4421 6.542 88.5443 6.56305 88.6477 6.56301C88.75 6.56355 88.8515 6.54301 88.9459 6.50261C89.0403 6.46221 89.1257 6.40279 89.1969 6.32793C89.2682 6.25306 89.3239 6.16429 89.3606 6.06696C89.3973 5.96963 89.4143 5.86575 89.4106 5.76155C89.4176 5.65491 89.4031 5.54792 89.3678 5.44724C89.3326 5.34655 89.2774 5.25431 89.2057 5.17624C89.134 5.09816 89.0473 5.03592 88.951 4.99336C88.8548 4.9508 88.7509 4.92885 88.6459 4.92885C88.541 4.92885 88.4371 4.9508 88.3408 4.99336C88.2445 5.03592 88.1578 5.09816 88.0861 5.17624C88.0144 5.25431 87.9593 5.34655 87.924 5.44724C87.8888 5.54792 87.8742 5.65491 87.8813 5.76155M89.666 5.76155C89.675 5.97287 89.6213 6.18204 89.512 6.3619C89.4027 6.54176 89.2428 6.684 89.0531 6.77013C88.8634 6.85626 88.6526 6.88232 88.4482 6.8449C88.2437 6.80749 88.055 6.70834 87.9067 6.56034C87.7583 6.41233 87.657 6.22231 87.616 6.01495C87.5751 5.80759 87.5963 5.59248 87.6769 5.39756C87.7576 5.20264 87.8939 5.03692 88.0683 4.92192C88.2426 4.80693 88.4469 4.74797 88.6546 4.75271C88.7861 4.75085 88.9168 4.77552 89.039 4.8253C89.1612 4.87508 89.2725 4.94899 89.3665 5.04276C89.4605 5.13653 89.5354 5.24832 89.5868 5.37168C89.6382 5.49505 89.6651 5.62755 89.666 5.76155Z" fill="white"/>
</svg>
